PathFileType	3	(X/Y/Z)	C:\Users\koon_\Desktop\
DataRate	CameraRate	NumFrames	NumMarkers	Units	OrigDataRate	OrigDataStartFrame	OrigNumFrames
100.0	100.0	9	27	mm	100.0	1502	3002	
Frame#	Time	GM:LFHD			GM:RFHD			GM:LBHD			GM:RBHD			GM:C7			GM:T10			GM:CLAV			GM:STRN			GM:RBAK			GM:LSHO			GM:LUPA			GM:LELB			GM:LFRA			GM:LWRA			GM:LWRB			GM:LFIN			GM:RSHO			GM:RUPA			GM:RELB			GM:RFRA			GM:RWRA			GM:RWRB			GM:RFIN			GM:LASI			GM:RASI			GM:LPSI			GM:RPSI			
		X1	Y1	Z1	X2	Y2	Z2	X3	Y3	Z3	X4	Y4	Z4	X5	Y5	Z5	X6	Y6	Z6	X7	Y7	Z7	X8	Y8	Z8	X9	Y9	Z9	X10	Y10	Z10	X11	Y11	Z11	X12	Y12	Z12	X13	Y13	Z13	X14	Y14	Z14	X15	Y15	Z15	X16	Y16	Z16	X17	Y17	Z17	X18	Y18	Z18	X19	Y19	Z19	X20	Y20	Z20	X21	Y21	Z21	X22	Y22	Z22	X23	Y23	Z23	X24	Y24	Z24	X25	Y25	Z25	X26	Y26	Z26	X27	Y27	Z27	
1502	15.01	99.398323	1590.2008	-48.927708	-54.369194	1588.7977	-42.355156	93.940277	1573.4283	-181.00787	-68.75161	1574.7842	-157.21812	7.6493974	1421.7219	-226.18257	9.9808502	1236.121	-297.9787	23.973017	1349.0906	-69.925919	25.340916	1200.3453	-38.344967	-89.923317	1321.7529	-278.97412	186.57033	1392.5145	-161.66855	256.34073	1289.8728	-161.31181	296.34576	1086.4856	-217.03052	283.76736	980.43335	-111.76893	290.35461	915.16742	-79.688698	320.52216	886.48779	-132.08266	310.19614	832.94409	-49.808399	-168.39149	1385.2112	-123.58772	-248.62227	1164.6501	-151.4176	-287.14752	1089.1571	-207.53595	-268.56619	1033.3732	-131.63667	-267.84201	907.00507	-94.376465	-291.84277	883.6969	-146.98	-285.9924	822.80969	-74.535103	156.60506	905.89166	-88.245514	-133.59645	907.58167	-76.863655	74.513474	945.58032	-298.01883	-66.203857	937.48914	-293.87378
1503	15.02	99.160355	1590.9832	-53.136356	-54.673279	1589.6119	-46.576698	93.690681	1573.6202	-185.07983	-69.072548	1575.0546	-161.35747	7.4059644	1421.1952	-229.35266	9.8380432	1234.7991	-299.24457	23.751066	1350.0562	-72.410179	25.567337	1201.6306	-38.93869	-90.12262	1320.5631	-281.17749	186.243	1392.489	-164.54051	256.19485	1290.0454	-163.17499	296.16049	1086.1715	-217.11308	283.49518	980.9455	-110.96355	290.0596	915.96454	-78.378906	320.27985	886.76129	-130.45389	309.8017	833.91931	-47.880825	-168.61357	1385.5214	-126.41694	-248.59143	1164.6107	-151.73384	-287.15451	1088.5092	-207.03331	-268.50891	1033.3521	-130.73982	-267.72885	907.2608	-92.512283	-291.85297	883.64282	-144.86555	-285.72876	823.35162	-72.007141	156.60158	905.82605	-87.395348	-133.71324	907.51862	-76.062035	74.617188	945.44836	-296.85507	-66.204445	937.41754	-293.15182
1504	15.03	98.922386	1591.7488	-57.102829	-54.816051	1590.4027	-50.248314	93.374954	1573.7408	-188.85394	-69.154251	1575.3691	-165.20064	7.1615505	1420.6747	-232.39285	9.6623955	1233.6013	-300.57251	23.580601	1350.9707	-74.8442	25.518387	1202.7207	-39.891148	-90.29969	1319.4158	-283.20764	186.2043	1392.8282	-167.55698	256.01205	1290.2621	-165.03783	296.09814	1085.8813	-217.24617	283.04654	981.4201	-110.45281	289.82773	916.71265	-77.270462	320.32242	887.33765	-129.12584	309.40833	834.85498	-46.125851	-168.85957	1385.8167	-129.10672	-248.65941	1164.5887	-152.18884	-287.24591	1087.8754	-206.69478	-268.09406	1033.1649	-130.37082	-267.61795	907.64429	-90.812698	-291.91418	883.60974	-142.88048	-285.5329	823.72607	-69.561188	156.55945	905.79718	-86.608566	-133.77667	907.52985	-75.296921	74.660904	945.349	-296.14169	-66.16539	937.36432	-292.50989
1505	15.04	98.653183	1592.4332	-60.860706	-55.119698	1591.0234	-54.014118	93.122467	1573.8693	-192.60887	-69.415375	1575.5073	-168.88217	6.8773928	1420.173	-235.25537	9.5187197	1232.4307	-301.7319	23.418619	1351.8298	-77.087761	25.408138	1203.7739	-40.980274	-90.489113	1318.379	-285.21811	185.97588	1392.9534	-170.35307	255.90218	1290.4529	-167.05656	295.75864	1085.683	-217.22379	282.71765	981.95264	-109.91496	289.46329	917.47858	-76.269577	319.97241	887.66382	-127.76225	309.09259	835.7243	-44.633064	-169.08443	1386.0337	-131.77762	-248.68578	1164.4749	-152.6432	-287.26346	1087.2928	-206.31047	-268.0574	1033.2062	-129.67447	-267.43591	908.01794	-88.898659	-291.94159	883.60809	-140.91476	-285.3331	824.19684	-67.163322	156.43234	905.77765	-85.831177	-133.76677	907.59656	-74.568573	74.617996	945.29651	-295.8096	-66.159874	937.23004	-291.84167
1506	15.05	98.34568	1593.08	-64.433914	-55.326584	1591.6375	-57.560894	92.813614	1573.9341	-196.13506	-69.77317	1575.624	-172.31299	6.607214	1419.6875	-237.96086	9.3566828	1231.3401	-302.94757	23.31958	1352.6388	-79.329315	25.429415	1204.8027	-42.232464	-90.635658	1317.3236	-287.09122	185.76714	1393.0835	-173.03131	255.77444	1290.6068	-168.73634	295.83469	1085.4514	-217.68739	282.39594	982.36469	-109.55029	289.17026	918.16992	-75.441551	320.0929	888.28833	-126.78403	308.67316	836.65448	-43.183826	-169.33223	1386.2635	-134.19054	-248.83437	1164.4081	-153.19217	-287.40286	1086.8234	-206.0887	-268.39642	1033.5095	-128.51619	-267.33353	908.37714	-87.375244	-291.99792	883.63519	-139.01854	-285.12741	824.6944	-64.832237	156.32985	905.82922	-85.057648	-133.80699	907.73877	-73.828438	74.590324	945.21106	-295.04727	-66.243477	937.09326	-291.17435
1507	15.06	98.081184	1593.6888	-67.892731	-55.534222	1592.1158	-61.066826	92.558861	1573.9912	-199.47667	-70.323608	1575.5426	-175.66632	6.3997407	1419.2418	-240.53349	9.2166815	1230.2844	-304.0976	23.055811	1353.4093	-81.538841	25.380844	1205.8081	-43.07391	-90.788246	1316.3533	-288.89114	185.58347	1393.1786	-175.57802	255.64444	1290.7697	-170.68594	295.70282	1085.2161	-218.01657	282.22949	982.92621	-109.24344	288.905	918.91119	-74.71933	319.96234	888.68396	-125.94372	308.2998	837.56995	-42.037697	-169.54202	1386.4331	-136.50871	-248.93405	1164.4026	-153.70963	-287.39957	1086.2867	-205.83331	-268.32986	1033.6163	-127.88948	-267.2106	908.72815	-85.780998	-292.02963	883.64716	-137.30681	-284.98514	825.16156	-62.750473	156.16548	905.93829	-84.333977	-133.79192	907.90924	-73.167892	74.553925	945.08325	-294.44913	-66.267029	936.88605	-290.60886
1508	15.07	97.766174	1594.2498	-71.149437	-55.872387	1592.6327	-64.295418	92.260185	1573.9956	-202.65349	-70.572662	1575.5472	-178.81204	6.1082568	1418.7869	-242.89339	9.0646963	1229.2968	-305.10837	22.918495	1354.0966	-83.536972	24.940575	1206.7483	-44.814922	-90.944855	1315.4047	-290.65268	185.2382	1393.1592	-177.80293	255.53864	1290.8867	-172.56168	295.6524	1085.015	-218.45325	282.33524	983.37982	-108.94541	288.61203	919.62866	-74.240028	319.73007	889.02582	-125.16419	307.98697	838.35272	-41.03981	-169.78642	1386.5891	-138.7879	-249.02158	1164.3481	-154.17722	-287.45947	1085.8533	-205.64262	-267.9472	1033.5215	-127.74011	-267.17834	909.1441	-84.321281	-292.06277	883.71741	-135.63477	-284.85049	825.63971	-60.711437	156.02783	906.10742	-83.699509	-133.73473	908.03595	-72.594757	74.522575	944.97443	-293.9325	-66.271828	936.65948	-290.10233
1509	15.08	97.487328	1594.755	-74.272537	-56.325565	1593.0812	-67.40667	91.973907	1573.9698	-205.68323	-70.845268	1575.5107	-181.98839	5.9579277	1418.3887	-245.21574	8.8718424	1228.3011	-306.05014	22.784132	1354.7288	-85.392403	25.193026	1207.8679	-45.224678	-91.133499	1314.5126	-292.28506	185.16254	1393.2727	-180.21368	255.49677	1291.035	-174.27753	295.51706	1084.8276	-218.97162	282.30789	983.87085	-108.85333	288.3797	920.27179	-73.87513	319.54169	889.47333	-124.57018	307.65134	839.23621	-40.060165	-170.01974	1386.7493	-140.90559	-249.1275	1164.356	-154.6127	-287.46231	1085.4281	-205.55931	-268.35431	1033.9482	-126.88856	-267.17365	909.58405	-82.961945	-292.07956	883.79486	-134.1217	-284.71579	826.23572	-58.746601	155.86313	906.34698	-83.006798	-133.80099	908.16302	-72.155075	74.492928	944.82233	-293.46686	-66.313957	936.42633	-289.61725
1510	15.09	97.195839	1595.2672	-77.253281	-56.548687	1593.532	-70.289795	91.684517	1573.9176	-208.61003	-71.155228	1575.4355	-184.81923	5.7098193	1417.9615	-247.35748	8.7035093	1227.4232	-306.99689	22.616497	1355.3	-87.18541	25.14946	1208.655	-45.925022	-91.302254	1313.6573	-293.75452	185.00455	1393.2722	-182.42046	255.38751	1291.0967	-176.02686	295.52078	1084.6665	-219.62326	282.11017	984.3927	-108.95036	288.18454	920.9425	-73.578636	319.03024	889.5705	-123.97015	307.3735	840.00085	-39.435318	-170.23245	1386.844	-142.98631	-249.19347	1164.3773	-155.02777	-287.51154	1085.0409	-205.45987	-268.42404	1034.1171	-126.48523	-267.13034	910.07056	-81.601364	-292.08157	883.96881	-132.74269	-284.71985	826.8186	-56.952812	155.75311	906.6344	-82.376945	-133.86519	908.29089	-71.690086	74.385696	944.63672	-292.99979	-66.328354	936.21881	-289.21548
